<?xml version="1.0" encoding="UTF-8" standalone="no"?>
<svg xmlns="http://www.w3.org/2000/svg" viewBox="0 0 22 22">
  <defs id="defs3051">
    <style type="text/css" id="current-color-scheme">
      .ColorScheme-Text {
        color:#4d4d4d;
      }
      </style>
  </defs>
  <g
     transform="matrix(0.00938989,0,0,-0.00938989,-1.1929841,18.425545)"
     id="g4">
    <path
       sodipodi:nodetypes="sssccscsssssssssssccsccccsccccssssssssscsccssccsssssssscscccssssccsssssascccssssscssssssccscssssssssscsssccssscssssscccccccscccsccc"
       style="color:#4d4d4d;fill:currentColor;fill-opacity:1;stroke:none" class="ColorScheme-Text"
       d="M 2251.5,232 C 2165.8333,146.66667 2063,104 1943,104 c -114,0 -212.8333,38.5 -296.5,115.5 -83.6667,77 -130.1667,170.83333 -139.5,281.5 h -122 c -3.3333,-13.33333 -5.8333,-25.83333 -7.5,-37.5 -1.6667,-11.66667 -4.1667,-23.5 -7.5,-35.5 20.6667,0 37.6667,-4 51,-12 13.3333,-8 20,-22.66667 20,-44 0,-18.66667 -7.6667,-32.5 -23,-41.5 -15.3333,-9 -39,-13.5 -71,-13.5 -10.6667,0 -20.8333,0.33333 -30.5,1 -9.6667,0.66667 -18.1667,1 -25.5,1 h -21 c -22.6667,0 -38.1667,3.83333 -46.5,11.5 -8.3333,7.66667 -12.5,19.83333 -12.5,36.5 0,18 9.3333,33.16667 28,45.5 18.6667,12.33333 38,18.5 58,18.5 h 6 l 5,-1 c 3.3333,13.33333 5.5,25.33333 6.5,36 1,10.66667 3.1667,22.33333 6.5,35 h -14 l -6,1 h -9 c -2,1.33333 -5.5,2.83333 -10.5,4.5 -5,1.66667 -11.1667,7.5 -18.5,17.5 L 962,972 c -4,-15.33333 -8.66667,-31 -14,-47 l -16,-47 c 49.33333,-40.66667 88.5,-90.16667 117.5,-148.5 C 1078.5,671.16667 1093,607.66667 1093,539 1093,420.33333 1050.3333,318.16667 965,232.5 879.66667,146.83333 776.66667,104 656,104 535.33333,104 432.33333,146.83333 347,232.5 261.66667,318.16667 219,420.33333 219,539 c 0,120 43,222.83333 129,308.5 86,85.66667 188.66667,128.5 308,128.5 33.33333,0 65.33333,-3.5 96,-10.5 30.66667,-7 60,-17.16667 88,-30.5 15.33333,44 28,88.6667 38,134 10,45.3333 19.33333,90.3333 28,135 l 4,22 c 14,82 34.83333,131.8333 62.5,149.5 27.6667,17.6667 48.8333,31.3333 63.5,41 14.6667,9.6667 61.3333,14.5 140,14.5 l 61,-1 c 16,0 30.8333,-7.1667 44.5,-21.5 13.6667,-14.3333 20.5,-30.8333 20.5,-49.5 0,-20.6667 -10,-38.8333 -30,-54.5 -20,-15.6667 -52,-23.5 -96,-23.5 h -51 c -9.3333,0 -18.8333,-0.5 -28.5,-1.5 -9.6667,-1 -18.1667,-1.5 -25.5,-1.5 -6.6667,0 -13,0.8333 -19,2.5 -6,1.6667 -11.3333,4.5 -16,8.5 -5.3333,-6.6667 -9.5,-16.1667 -12.5,-28.5 -3,-12.3333 -6.8333,-29.8333 -11.5,-52.5 l -15,-81 h 443 c -34.6667,4 -62.5,12 -83.5,24 -21,12 -31.5,27 -31.5,45 0,16.6667 6,32 18,46 12,14 27.3333,21.8333 46,23.5 18.6667,1.6667 42,5.1667 70,10.5 l 75,13 c 24.6667,4 49,7.5 73,10.5 24,3 47,4.5 69,4.5 22.6667,0 42.5,-8.8333 59.5,-26.5 17,-17.6667 25.5,-38.1667 25.5,-61.5 0,-27.3333 -12.6667,-51.5 -38,-72.5 -25.3333,-21 -53.2102,-26.1605 -82,-31.5 -5.8994,-1.0941 -12.0021,-0.1577 -18,0 -6.3399,0.1667 -12.3333,0.3333 -19,1 v -21 l 126,-170 c 32,17.33333 65.8333,30.66667 101.5,40 35.6667,9.33333 72.8333,14 111.5,14 118.6667,0 221.1667,-42.66667 307.5,-128 86.3333,-85.33333 129.5,-188.33333 129.5,-309 0,-119.33333 -42.8333,-221.66667 -128.5,-307 z M 885,764 C 850.33333,690.66667 811.5,628.83333 768.5,578.5 725.5,528.16667 700,500 692,494 c -8,-6 -19,-9 -33,-9 -14.66667,0 -27.66667,5.16667 -39,15.5 -11.33333,10.33333 -17,23.16667 -17,38.5 0,9.33333 2.16667,18 6.5,26 4.33333,8 11.16667,14.66667 20.5,20 l 7,5 c 36,36 66.83333,73.66667 92.5,113 25.66667,39.33333 48.16667,80.66667 67.5,124 -21.33333,10.66667 -43.83333,18.83333 -67.5,24.5 -23.66667,5.66667 -48.16667,8.5 -73.5,8.5 -86.66667,0 -161.66667,-31.33333 -225,-94 -63.33333,-62.66667 -95,-138.33333 -95,-227 0,-88 31.33333,-163.33333 94,-226 62.66667,-62.66667 138,-94 226,-94 88.66667,0 164.33333,31.66667 227,95 62.66667,63.33333 94,138.33333 94,225 0,44 -8.33333,85 -25,123 -16.66667,38 -39,72 -67,102 z m 1283,1 c -63.3333,63.33333 -138.3333,95 -225,95 -25.3333,0 -50,-2.83333 -74,-8.5 -24,-5.66667 -46.3333,-13.83333 -67,-24.5 l 179,-242 c 6.6667,-9.33333 10,-20 10,-32 0,-14.66667 -5.1667,-27 -15.5,-37 -10.3333,-10 -22.5,-15 -36.5,-15 h -314 c 9.3333,-80.66667 44.3333,-147.83333 105,-201.5 60.6667,-53.66667 131.6667,-80.5 213,-80.5 88,0 163.3333,31.66667 226,95 62.6667,63.33333 94,138.33333 94,225 0,87.33333 -31.6667,162.66667 -95,226 z m -1113,257 244,-362 170,362 z m 507,-50 -171,-365 h 120 c 7.3333,49.33333 22.5,95.5 45.5,138.5 23,43 52.5,81.16667 88.5,114.5 z m 153,-207 c -22,-21.33333 -40.3333,-45.33333 -55,-72 -14.6667,-26.66667 -25,-55.33333 -31,-86 h 205 z"
       id="path2" />
  </g>
</svg>
