<?xml version="1.0" encoding="UTF-8" standalone="no"?>
<svg xmlns="http://www.w3.org/2000/svg" viewBox="0 0 22 22">
  <defs id="defs3051">
    <style
       type="text/css"
       id="current-color-scheme">
      .ColorScheme-Text {
        color:#4d4d4d;
      }
      </style>
  </defs>
  <path
     style="color:#4d4d4d;fill:currentColor;fill-opacity:1;stroke:none" class="ColorScheme-Text"
     d="m 18.679188,11.502469 0.02034,0.569593 v 5.197534 q 0,0.23394 -0.16274,0.401766 -0.162741,0.167827 -0.396681,0.167827 h -0.925588 v 1.403639 q 0,0.406852 -0.274626,0.686563 -0.274625,0.279711 -0.681477,0.279711 -0.39668,0 -0.676391,-0.284797 -0.279711,-0.284796 -0.279711,-0.681477 V 17.839189 H 6.7075677 v 1.403639 q 0,0.406852 -0.2847964,0.686563 -0.2847964,0.279711 -0.6713058,0.279711 -0.3966807,0 -0.6763915,-0.284797 Q 4.7953633,19.639509 4.7953633,19.242828 V 17.839189 H 3.869775 q -0.2339399,0 -0.3966807,-0.167827 -0.1627408,-0.167826 -0.1627408,-0.401766 v -4.627942 l 0.010171,-0.569592 q 0,-0.335653 0.020343,-0.569593 L 3.7375481,4.1079337 Q 3.7578907,3.8231373 3.9308028,3.4773131 4.1037149,3.1314889 4.9326758,2.7144656 5.7616368,2.2974423 7.2822461,1.982132 8.8028555,1.6668217 10.908315,1.6668217 q 1.810491,0 3.290415,0.2491969 1.479924,0.2491968 2.558082,0.7069053 1.078158,0.4577085 1.28667,0.813704 0.208511,0.3559955 0.239025,0.6713058 z M 7.2771605,3.0501185 q -0.2644538,0 -0.4526229,0.188169 -0.188169,0.1881691 -0.188169,0.4526229 0,0.2644538 0.188169,0.4475372 Q 7.0127067,4.321531 7.2771605,4.321531 H 14.54964 q 0.264454,0 0.447537,-0.1830834 0.183084,-0.1830834 0.183084,-0.4475372 0,-0.2644538 -0.183084,-0.4526229 -0.183083,-0.188169 -0.447537,-0.188169 z M 4.7445068,12.194117 H 17.275548 L 17.082294,5.1860915 H 4.9275902 Z m 1.8257483,2.130888 q -0.3203959,-0.320396 -0.7577618,-0.320396 -0.4475372,0 -0.7628475,0.325481 -0.3153103,0.325482 -0.3153103,0.752676 0,0.427195 0.3153103,0.752677 0.3153103,0.325481 0.7628475,0.325481 0.4373659,0 0.7577618,-0.320396 0.320396,-0.320396 0.320396,-0.757762 0,-0.437365 -0.320396,-0.757761 z m 10.4611819,0.0051 q -0.31531,-0.325481 -0.752676,-0.325481 -0.447537,0 -0.762847,0.325481 -0.315311,0.325482 -0.315311,0.752676 0,0.427195 0.315311,0.752677 0.31531,0.325481 0.762847,0.325481 0.437366,0 0.752676,-0.325481 0.31531,-0.325482 0.31531,-0.752677 0,-0.427194 -0.31531,-0.752676 z"
     id="path4749" />
</svg>
