<?xml version="1.0" encoding="UTF-8" standalone="no"?>
<svg xmlns="http://www.w3.org/2000/svg" viewBox="0 0 22 22">
  <defs id="defs3051">
    <style
       type="text/css"
       id="current-color-scheme">
      .ColorScheme-Text {
        color:#4d4d4d;
      }
      </style>
  </defs>
  <path
     style="color:#4d4d4d;fill:currentColor;fill-opacity:1;stroke:none" class="ColorScheme-Text"
     d="m 14.879482,5.2406591 q -0.07353,0.1562559 -0.216,0.2527668 -0.142469,0.096511 -0.326299,0.096511 h -1.700431 l 1.645282,5.1104851 h 2.803413 q 0.23898,0 0.436597,0.174639 0.197618,0.174639 0.243576,0.413618 l 0.661789,4.255674 q 0,0.07353 0.0092,0.160852 0.0092,0.08732 0.0092,0.188426 0,0.18383 -0.02298,0.413618 -0.02298,0.229788 -0.06894,0.386044 l -0.523917,1.939411 q -0.06434,0.238979 -0.284937,0.404427 -0.220596,0.165447 -0.459576,0.165447 H 5.0629391 q -0.2481711,0 -0.4733633,-0.165447 Q 4.3643835,18.871683 4.2908514,18.641895 L 3.6842111,16.684102 q -0.045958,-0.147065 -0.068936,-0.349278 -0.022979,-0.202214 -0.022979,-0.404427 0,-0.220597 0.027575,-0.386044 L 4.3643835,11.288679 Q 4.4103411,11.0497 4.6125546,10.875061 4.814768,10.700422 5.0629391,10.700422 h 3.02401 L 9.6035499,5.5899369 H 7.6825223 q -0.1838304,0 -0.3217032,-0.096511 Q 7.2229463,5.396915 7.1494141,5.2406591 H 0.26496562 V 4.6432103 H 7.094265 V 4.5237206 q 0,-0.2389796 0.1746389,-0.4136184 0.1746388,-0.1746389 0.4136184,-0.1746389 h 1.0110672 q 0.248171,0 0.4182141,-0.1746389 Q 9.2818467,3.5861855 9.2818467,3.3380145 V 3.2001417 q 0,-0.2389795 0.1792347,-0.4136184 Q 9.640316,2.6118844 9.8792955,2.6118844 h 2.2703055 q 0.248171,0 0.418214,0.1746389 0.170043,0.1746389 0.170043,0.4136184 v 0.1378728 q 0,0.248171 0.179235,0.4228099 0.179235,0.1746389 0.418214,0.1746389 h 1.001876 q 0.248171,0 0.42281,0.1746389 0.174639,0.1746388 0.174639,0.4136184 v 0.1194897 h 6.829299 v 0.5974488 z m 0.03677,9.9636079 q 0,0.156256 0.101107,0.257362 0.101107,0.101107 0.257363,0.101107 h 1.957794 q 0.128681,0 0.216,-0.07813 0.08732,-0.07813 0.08732,-0.206809 l -0.42281,-2.739073 q -0.02758,-0.156256 -0.142469,-0.257363 -0.114894,-0.101106 -0.261958,-0.101106 h -1.433877 q -0.156256,0 -0.257363,0.105702 -0.101107,0.105703 -0.101107,0.252767 z M 10.56866,4.3766562 q 0.18383,0.1838304 0.450384,0.1838304 0.257363,0 0.441193,-0.1838304 0.18383,-0.1838304 0.18383,-0.4411929 0,-0.2665541 -0.18383,-0.4503845 -0.18383,-0.1838304 -0.441193,-0.1838304 -0.266554,0 -0.450384,0.1838304 -0.183831,0.1838304 -0.183831,0.4503845 0,0.2573625 0.183831,0.4411929 z m -0.42281,3.7685232 h 2.003751 L 11.313173,5.5899369 H 10.908746 Z M 7.112648,12.538726 q 0,-0.147064 -0.1011067,-0.252767 -0.1011067,-0.105702 -0.248171,-0.105702 H 5.4122168 q -0.1562558,0 -0.2757456,0.101106 -0.1194897,0.101107 -0.1470643,0.257363 l -0.477959,2.729881 q 0,0.128682 0.087319,0.211405 0.087319,0.08272 0.2160007,0.08272 h 1.9486023 q 0.1470643,0 0.248171,-0.101107 0.1011067,-0.101106 0.1011067,-0.257362 z m 3.456012,0 q 0,-0.147064 -0.105703,-0.252767 -0.105702,-0.105702 -0.252767,-0.105702 H 8.3718863 q -0.1470644,0 -0.2527668,0.105702 -0.1057025,0.105703 -0.1057025,0.252767 v 2.665541 q 0,0.156256 0.1057025,0.257362 0.1057024,0.101107 0.2527668,0.101107 H 10.21019 q 0.147065,0 0.252767,-0.101107 0.105703,-0.101106 0.105703,-0.257362 z m 3.437628,0 q 0,-0.147064 -0.101107,-0.252767 -0.101106,-0.105702 -0.257362,-0.105702 h -1.829113 q -0.147064,0 -0.248171,0.105702 -0.101107,0.105703 -0.101107,0.252767 v 2.665541 q 0,0.156256 0.101107,0.257362 0.101107,0.101107 0.248171,0.101107 h 1.829113 q 0.156256,0 0.257362,-0.101107 0.101107,-0.101106 0.101107,-0.257362 z M 12.416155,8.9816078 H 9.9068701 L 9.392145,10.700422 h 3.575501 z"
     id="path4751" />
</svg>
