<?xml version="1.0" encoding="UTF-8" standalone="no"?>
<svg xmlns="http://www.w3.org/2000/svg" viewBox="0 0 22 22">
  <defs id="defs3051">
    <style
       type="text/css"
       id="current-color-scheme">
      .ColorScheme-Text {
        color:#4d4d4d;
      }
      </style>
  </defs>
  <path
     style="color:#4d4d4d;fill:currentColor;fill-opacity:1;stroke:none" class="ColorScheme-Text"
     d="m 19.904344,13.991511 c 0.04329,0 0.286785,0.03246 0.730485,0.09739 0.443714,0.06493 0.665564,0.313843 0.665564,0.746717 0,0.238089 -0.0505,0.487004 -0.151509,0.746731 -0.100998,0.259734 -0.216443,0.519461 -0.346307,0.779195 l -0.400417,0.768369 c -0.144296,0.281372 -0.232669,0.503229 -0.265147,0.665557 -0.03246,0.162328 -0.05591,0.398617 -0.07033,0.708847 H 3.6279025 c 0.036078,-0.05772 0.068542,-0.122651 0.097399,-0.194792 0.028858,-0.07215 0.043283,-0.147909 0.043283,-0.22727 0,-0.245302 -0.091979,-0.532087 -0.2759591,-0.860362 -0.1839798,-0.328262 -0.3138363,-0.597016 -0.3895906,-0.80624 -0.075754,-0.209231 -0.4545329,-0.80264 -1.1363217,-1.78024 -0.6817958,-0.9776 -1.05515432,-1.583628 -1.12008959,-1.818111 -0.0649353,-0.234482 -0.0973994,-0.402216 -0.0973994,-0.503229 0,-0.209224 0.077554,-0.362539 0.23267596,-0.459938 0.15511493,-0.0974 0.34450073,-0.146096 0.56816433,-0.146096 0.093786,0 0.6853951,0.05591 1.7748273,0.167741 1.0894181,0.111831 1.8722197,0.200211 2.3483906,0.26514 0.079361,-0.31745 0.165934,-0.62948 0.2597341,-0.93611 0.093786,-0.306624 0.1803664,-0.61866 0.2597271,-0.93611 l 0.0974,-0.3895946 C 6.347859,9.604946 6.4380387,9.377676 6.5606966,9.1973096 6.6833474,9.0169432 6.9106103,8.9267635 7.2424854,8.9267635 h 0.248908 c 0.3535201,0 0.6998275,0.025251 1.0389222,0.075754 0.3390878,0.050503 0.6817888,0.093786 1.0281033,0.1298636 l 1.7315301,0.2056178 c 0.07937,-0.4256611 0.14069,-0.8567492 0.183973,-1.2932433 0.04329,-0.4364871 0.07936,-0.8820006 0.108225,-1.3365265 0.187586,-0.1515086 0.387791,-0.2579274 0.600629,-0.3192493 0.21283,-0.061329 0.434687,-0.091993 0.665556,-0.091993 0.440101,0 0.901839,0.075754 1.38523,0.22727 0.483391,0.1515086 0.836911,0.331875 1.060567,0.5410992 l -0.08657,2.2726433 c 0,0.1010058 0.0036,0.1984052 0.01081,0.2922052 V 9.9115697 L 16.59278,10.12802 c 0.4401,0.06492 0.900039,0.151502 1.379816,0.259728 0.479785,0.108218 0.761157,0.192992 0.844131,0.254321 0.08297,0.06132 0.173147,0.315636 0.270553,0.762956 0.09739,0.447313 0.146096,0.919877 0.146096,1.417694 v 0.292198 c 0,0.137083 0.01082,0.270553 0.03246,0.400416 l 0.04329,0.40041 z M 11.657901,6.0913689 c 0.01443,-0.1803734 0.07215,-0.4455065 0.173154,-0.7954273 0.101006,-0.3499067 0.295805,-0.569957 0.584397,-0.6601507 0.288591,-0.090173 0.566357,-0.1352695 0.833297,-0.1352695 0.548326,0 1.03171,0.1136314 1.450165,0.3408944 0.418448,0.2272699 0.627687,0.5356932 0.627687,0.9252978 0,0.1009987 -0.0036,0.2002048 -0.01083,0.2976042 -0.0072,0.097399 -0.01082,0.1965984 -0.01082,0.2976042 -0.13709,-0.1515086 -0.452726,-0.3012106 -0.946935,-0.4491198 -0.494217,-0.1478953 -0.918079,-0.22185 -1.271599,-0.22185 -0.367952,0 -0.665556,0.034271 -0.892826,0.1028055 -0.227256,0.068549 -0.40583,0.1677477 -0.535694,0.2976112 z m 3.592938,6.6231241 c 0.180367,0.173161 0.393204,0.259734 0.638506,0.259734 0.252514,0 0.465345,-0.08657 0.638505,-0.259734 0.173154,-0.173154 0.259735,-0.385984 0.259735,-0.638499 0,-0.252521 -0.08658,-0.465351 -0.259735,-0.638505 -0.17316,-0.173154 -0.385991,-0.259734 -0.638505,-0.259734 -0.245302,0 -0.458139,0.08658 -0.638506,0.259734 -0.180366,0.173154 -0.270553,0.385984 -0.270553,0.638505 0,0.252515 0.09019,0.465345 0.270553,0.638499 z M 8.7467595,12.021885 c 0.1731537,0.180367 0.3823779,0.270553 0.6276796,0.270553 0.2525144,0 0.4671516,-0.08839 0.6439119,-0.265147 0.176767,-0.17676 0.265147,-0.391397 0.265147,-0.643911 0,-0.245302 -0.09019,-0.454533 -0.270553,-0.627687 -0.1803667,-0.173147 -0.3932042,-0.259727 -0.6385059,-0.259727 -0.2453017,0 -0.4545259,0.08658 -0.6276796,0.259727 -0.1731537,0.173154 -0.259734,0.382385 -0.259734,0.627687 0,0.245301 0.08658,0.458139 0.259734,0.638505 z m 3.2466235,-0.919878 c -0.173147,0.180367 -0.259727,0.393204 -0.259727,0.638499 0,0.245302 0.09019,0.454526 0.27056,0.627687 0.180366,0.173146 0.393197,0.259727 0.638499,0.259727 0.245301,0 0.454525,-0.08658 0.627679,-0.259727 0.173154,-0.173161 0.259727,-0.382385 0.259727,-0.627687 0,-0.245295 -0.08477,-0.458132 -0.254314,-0.638499 -0.169547,-0.180373 -0.380578,-0.270553 -0.633092,-0.270553 -0.259728,0 -0.476171,0.09018 -0.649332,0.270553 z"
     id="path4751" />
</svg>
