<?xml version="1.0" encoding="UTF-8" standalone="no"?>
<svg xmlns="http://www.w3.org/2000/svg" viewBox="0 0 22 22">
  <defs id="defs3051">
    <style
       type="text/css"
       id="current-color-scheme">
      .ColorScheme-Text {
        color:#4d4d4d;
      }
      </style>
  </defs>
  <path
     style="color:#4d4d4d;fill:currentColor;fill-opacity:1;stroke:none" class="ColorScheme-Text"
     d="m 16.645728,12.656988 q 0,-2.292227 -1.640349,-3.9453573 -1.640348,-1.6531303 -3.949617,-1.6531303 -1.4912262,0 -2.7949835,0.7498736 Q 6.9570211,8.5582475 6.2114082,9.8620048 5.4657953,11.165762 5.4657953,12.656988 v 5.061646 H 8.9254391 L 7.5620327,19.883042 H 2.9094083 q -0.7754373,0 -1.3378425,-0.562405 Q 1.0091607,18.758232 1.0091607,17.982794 V 9.308121 Q 2.9946212,5.8740411 5.5680508,4.0206606 8.1414804,2.16728 11.055762,2.16728 q 2.871674,0 5.423801,1.8107741 2.552126,1.8107741 4.631321,5.3300669 v 8.674673 q 0,0.775438 -0.562405,1.337843 -0.562405,0.562405 -1.337843,0.562405 H 14.54949 l -1.354885,-2.164408 h 3.451123 z m -3.63007,-3.6215483 q 0.673182,0 1.146114,0.4814529 0.472931,0.4814529 0.472931,1.1461134 v 4.465156 q 0,0.630576 -0.417543,1.086465 -0.417543,0.455889 -1.031076,0.524059 v 0.809522 q 0,0.144862 -0.102255,0.247118 -0.102256,0.102255 -0.255639,0.102255 -0.144862,0 -0.247118,-0.102255 -0.102255,-0.102256 -0.102255,-0.247118 v -0.79248 H 9.6156636 v 0.79248 q 0,0.144862 -0.1065162,0.247118 -0.1065161,0.102255 -0.251378,0.102255 -0.1448619,0 -0.2471174,-0.102255 Q 8.9083965,17.69307 8.9083965,17.548208 V 16.738686 Q 8.2948636,16.670516 7.8773204,16.214627 7.4597772,15.758738 7.4597772,15.128162 v -4.465156 q 0,-0.6731818 0.4814529,-1.150374 Q 8.422683,9.0354397 9.0873436,9.0354397 Z m 0.903257,1.4230553 q 0,-0.357894 -0.255639,-0.6177934 Q 13.407638,9.5808023 13.049743,9.5808023 H 9.0532584 q -0.3664154,0 -0.6220541,0.2556387 -0.2556387,0.255639 -0.2556387,0.622054 v 1.099247 q 0,0.366415 0.2556387,0.622054 0.2556387,0.255638 0.6220541,0.255638 h 3.9964846 q 0.357895,0 0.613533,-0.259899 0.255639,-0.259899 0.255639,-0.617793 z m -0.579448,9.424547 H 8.7720559 L 9.65827,17.718634 h 2.794983 z M 9.1981204,14.71914 q -0.1704258,-0.170426 -0.4175432,-0.170426 -0.2471175,0 -0.4175433,0.170426 -0.1704258,0.170426 -0.1704258,0.417543 0,0.247118 0.1704258,0.417544 0.1704258,0.170425 0.4175433,0.170425 0.2471174,0 0.4175432,-0.170425 0.1704258,-0.170426 0.1704258,-0.417544 0,-0.247117 -0.1704258,-0.417543 z m 4.5333266,0 q -0.170426,-0.170426 -0.417544,-0.170426 -0.247117,0 -0.417543,0.170426 -0.170426,0.170426 -0.170426,0.417543 0,0.247118 0.170426,0.417544 0.170426,0.170425 0.417543,0.170425 0.247118,0 0.417544,-0.170425 0.170425,-0.170426 0.170425,-0.417544 0,-0.247117 -0.170425,-0.417543 z"
     id="path4751" />
</svg>
