<?xml version="1.0" encoding="UTF-8" standalone="no"?>
<svg xmlns="http://www.w3.org/2000/svg" viewBox="0 0 22 22">
  <defs id="defs3051">
    <style
       type="text/css"
       id="current-color-scheme">
      .ColorScheme-Text {
        color:#4d4d4d;
      }
      </style>
  </defs>
  <path
     style="color:#4d4d4d;fill:currentColor;fill-opacity:1;stroke:none" class="ColorScheme-Text"
     d="m 19.256782,10.803117 q 0.700505,0.155667 1.161021,0.609698 0.460517,0.45403 0.460517,1.024811 v 4.527333 q 0,0.298363 -0.214043,0.512406 -0.214043,0.214043 -0.512406,0.214043 h -0.921033 v 1.660454 q 0,0.596726 -0.415114,1.018326 -0.415113,0.4216 -1.011839,0.4216 -0.596726,0 -1.01184,-0.4216 -0.415113,-0.4216 -0.415113,-1.018326 V 17.691408 H 5.8304519 v 1.660454 q 0,0.596726 -0.4151136,1.018326 -0.4151136,0.4216 -1.0118394,0.4216 -0.6096981,0 -1.0248117,-0.428086 -0.4151136,-0.428086 -0.4151136,-1.01184 V 17.691408 H 1.9517342 q -0.2983629,0 -0.5124058,-0.214043 -0.214043,-0.214043 -0.214043,-0.512406 v -4.527333 q 0,-0.570781 0.4605167,-1.024811 0.4605166,-0.454031 1.1739931,-0.609698 L 4.2737759,5.6012243 Q 4.4294435,5.0174708 4.967794,4.6023572 5.5061444,4.1872436 6.1288148,4.1872436 h 1.9328727 l -0.012972,-0.090806 q 0,-0.038917 -0.012972,-0.090806 v -1.945845 q 0,-0.2983629 0.214043,-0.5124059 0.2140429,-0.2140429 0.5124058,-0.2140429 h 4.5792227 q 0.298363,0 0.512405,0.2140429 0.214043,0.214043 0.214043,0.5124059 v 1.945845 q 0,0.1167507 -0.02594,0.1816122 h 1.945845 q 0.62267,0 1.161021,0.4151136 0.53835,0.4151136 0.694018,0.9988671 z M 12.809549,3.5386286 q 0,0.025945 0.02595,0.025945 h 0.324307 q 0.02595,0 0.02595,-0.025945 V 2.2284263 q 0,-0.025945 -0.02595,-0.025945 h -0.324307 q -0.02595,0 -0.02595,0.025945 z m -1.478842,-0.012972 q 0,0.025945 0.01297,0.038917 h 0.389169 l 0.02595,-0.012972 0.220529,-0.3372798 0.233502,0.3372798 0.02594,0.012972 h 0.376197 q 0.02594,0 0.02594,-0.038917 l -0.42808,-0.635643 0.415113,-0.648615 V 2.215454 L 12.614967,2.202482 H 12.25174 L 12.2258,2.215454 11.979326,2.5657061 11.745825,2.215454 11.719875,2.202482 h -0.363224 q -0.03892,0 -0.03892,0.012972 l 0.01297,0.025945 0.428086,0.648615 z M 10.396702,2.2024817 q -0.02595,0 -0.02595,0.012972 L 9.8778095,3.5256563 q 0,0.038917 0.051889,0.038917 h 0.2983635 l 0.03892,-0.038917 0.06486,-0.2075568 h 0.428086 l 0.07783,0.2075568 q 0,0.038917 0.03892,0.038917 h 0.311335 q 0.02594,0 0.02594,-0.038917 L 10.746954,2.2413986 q 0,-0.038917 -0.03892,-0.038917 z m 0.28539,0.8431995 h -0.259446 l 0.129723,-0.389169 z M 8.9308316,2.4619277 q 0,0.025945 0.038917,0.025945 H 9.2810838 V 3.538629 q 0,0.025945 0.038917,0.025945 h 0.2853906 q 0.025945,0 0.025945,-0.025945 V 2.4878723 h 0.3243075 q 0.025945,0 0.025945,-0.025945 V 2.215454 q 0,-0.025945 -0.025945,-0.025945 H 8.9697485 q -0.038917,0 -0.038917,0.025945 z M 5.4412829,13.014894 q -0.4151136,-0.395655 -0.9729225,-0.395655 -0.5318643,0 -0.9469779,0.389169 -0.4151136,0.389169 -0.4151136,0.972922 0,0.596726 0.4086275,0.985895 0.4086274,0.389169 0.953464,0.389169 0.5578089,0 0.9729225,-0.402141 0.4151136,-0.402142 0.4151136,-0.972923 0,-0.570781 -0.4151136,-0.966436 z M 16.662322,10.686366 q 0.259446,0 0.428086,-0.162154 0.16864,-0.162154 0.16864,-0.408627 0,-0.103779 -0.01297,-0.1556679 L 16.441793,6.2109224 Q 16.376932,5.9125595 16.117486,5.6985165 15.85804,5.4844736 15.546705,5.4844736 H 6.5569007 q -0.3113352,0 -0.5707812,0.2140429 -0.259446,0.214043 -0.3243075,0.5124059 L 4.8575294,9.9599171 q 0,0.051889 -0.012972,0.1426949 0,0.259446 0.1686399,0.4216 0.1686399,0.162154 0.4280859,0.162154 z m 2.127458,2.328528 q -0.415114,-0.395655 -0.972923,-0.395655 -0.544836,0 -0.95995,0.402141 -0.415114,0.402141 -0.415114,0.95995 0,0.570781 0.415114,0.972923 0.415114,0.402141 0.95995,0.402141 0.557809,0 0.972923,-0.402141 0.415113,-0.402142 0.415113,-0.972923 0,-0.570781 -0.415113,-0.966436 z"
     id="path4751" />
</svg>
