<?xml version="1.0" encoding="UTF-8" standalone="no"?>
<svg xmlns="http://www.w3.org/2000/svg" viewBox="0 0 22 22">
  <defs id="defs3051">
    <style type="text/css" id="current-color-scheme">
      .ColorScheme-Text {
        color:#4d4d4d;
      }
      </style>
  </defs>
  <path
     style="color:#4d4d4d;fill:currentColor;fill-opacity:1;stroke:none" class="ColorScheme-Text"
     d="m 15.098099,1.8668609 q 1.399482,0 2.400501,1.0010189 1.001019,1.0010189 1.001019,2.4005016 v 9.3687596 q 0,1.302296 -0.879536,2.2693 -0.879536,0.967004 -2.152676,1.103064 v 1.671605 q 0,0.310996 -0.21867,0.529665 -0.218669,0.218669 -0.519946,0.218669 -0.310996,0 -0.529666,-0.218669 -0.218669,-0.218669 -0.218669,-0.529665 V 18.028943 H 7.9937802 v 1.652167 q 0,0.310996 -0.2186692,0.529665 -0.2186692,0.218669 -0.5296653,0.218669 -0.3109962,0 -0.5248061,-0.218669 Q 6.5068298,19.992106 6.5068298,19.68111 V 18.009505 Q 5.214252,17.873445 4.3444346,16.906441 3.4746172,15.939437 3.4746172,14.637141 V 5.2683814 q 0,-1.3994827 1.0010189,-2.4005016 Q 5.476655,1.8668609 6.8761377,1.8668609 Z M 7.1093848,13.757605 q -0.3693079,-0.35473 -0.864958,-0.35473 -0.5150874,0 -0.8746767,0.359589 -0.3595893,0.359589 -0.3595893,0.874677 0,0.505368 0.3595893,0.869817 0.3595893,0.364449 0.8746767,0.364449 0.4956501,0 0.864958,-0.35959 0.369308,-0.359589 0.369308,-0.874676 0,-0.524806 -0.369308,-0.879536 z m 9.4902422,0.0049 q -0.364449,-0.359589 -0.860099,-0.359589 -0.515087,0 -0.874676,0.359589 -0.35959,0.359589 -0.35959,0.874677 0,0.505368 0.35959,0.869817 0.359589,0.364449 0.874676,0.364449 0.505369,0 0.864958,-0.364449 0.35959,-0.364449 0.35959,-0.869817 0,-0.515088 -0.364449,-0.874677 z m 0.393605,-8.9314209 q 0,-0.7386159 -0.544244,-1.2828592 Q 15.904745,3.0039406 15.166129,3.0039406 H 6.8081073 q -0.7483345,0 -1.2925778,0.539384 -0.5442433,0.539384 -0.5442433,1.2877185 v 2.3227525 q 0,0.7483345 0.5442433,1.2925778 0.5442433,0.5442433 1.2925778,0.5442433 h 8.3580217 q 0.748335,0 1.287719,-0.5442433 0.539384,-0.5442433 0.539384,-1.2925778 z"
     id="path4749" />
</svg>
