<?xml version="1.0" encoding="UTF-8" standalone="no"?>
<svg xmlns="http://www.w3.org/2000/svg" viewBox="0 0 22 22">
  <defs id="defs3051">
    <style
       type="text/css"
       id="current-color-scheme">
      .ColorScheme-Text {
        color:#4d4d4d;
      }
      </style>
  </defs>
  <path
     style="color:#4d4d4d;fill:currentColor;fill-opacity:1;stroke:none" class="ColorScheme-Text"
     d="m 1.9348413,12.612438 q -0.2922305,-0.838985 -0.2922305,-1.725103 0,-2.149308 1.5507069,-3.700015 1.550707,-1.550707 3.7000151,-1.550707 H 16.178721 V 2.7331617 l 4.835943,3.9215447 -4.835943,3.9026906 V 7.4559835 H 6.8933328 q -1.3951649,0 -2.4132582,1.0086666 -1.0180933,1.0086665 -1.0180933,2.4226849 0,0.103695 0.00943,0.197963 l 0.00943,0.207389 z M 20.185107,9.275354 q 0.29223,0.857838 0.29223,1.715676 0,2.149308 -1.54128,3.700015 -1.54128,1.550707 -3.709442,1.550707 H 5.941227 v 2.903451 L 1.1147105,15.233085 5.941227,11.320967 v 3.110841 h 9.285388 q 1.395165,0 2.413258,-1.008666 1.018094,-1.008667 1.018094,-2.432112 0,-0.188536 -0.02828,-0.405352 z"
     id="path4751" />
</svg>
