<?xml version="1.0" encoding="UTF-8" standalone="no"?>
<svg xmlns="http://www.w3.org/2000/svg" viewBox="0 0 22 22">
  <defs id="defs3051">
    <style
       type="text/css"
       id="current-color-scheme">
      .ColorScheme-Text {
        color:#4d4d4d;
      }
      </style>
  </defs>
  <path
     style="color:#4d4d4d;fill:currentColor;fill-opacity:1;stroke:none" class="ColorScheme-Text"
     d="m 16.575268,17.736668 q 0.345137,0.08026 0.565864,0.349151 0.220728,0.268886 0.220728,0.630076 0,0.417375 -0.288953,0.706328 -0.288952,0.288952 -0.706327,0.288952 H 5.6592955 q -0.4173753,0 -0.7103408,-0.296979 -0.2929654,-0.296979 -0.2929654,-0.698301 0,-0.36119 0.2167142,-0.62205 0.2167141,-0.26086 0.553825,-0.341124 0.056185,-2.303591 0.7906053,-3.648022 0.7344202,-1.34443 1.9343745,-1.950427 1.1999542,-0.605997 1.3042981,-0.826724 0.1043438,-0.220728 0.1043438,-0.381257 0,-0.561851 -0.8548169,-0.927055 Q 7.8505164,9.6540329 7.1040565,8.9798111 6.3575967,8.3055893 5.9041023,7.0735292 5.4506078,5.8414691 5.418502,4.0355179 5.0894176,3.9552534 4.8727035,3.6943938 4.6559893,3.4335341 4.6559893,3.0723439 q 0,-0.4013225 0.2929654,-0.6983011 Q 5.2419202,2.0770641 5.6592955,2.0770641 H 16.36658 q 0.417375,0 0.706327,0.2889522 0.288953,0.2889522 0.288953,0.7063276 0,0.3531638 -0.220728,0.6260631 -0.220727,0.2728993 -0.565864,0.3371109 -0.03211,2.3356969 -0.7585,3.7001934 -0.726394,1.3644966 -1.954441,1.9905597 -1.228046,0.626063 -1.328377,0.850804 -0.100331,0.22474 -0.100331,0.369216 0,0.545799 0.862844,0.919029 0.862843,0.37323 1.59325,1.039425 0.730407,0.666195 1.183901,1.862137 0.453495,1.195941 0.501654,2.969786 z M 6.0525916,17.720615 h 9.8966124 q -0.0321,-1.420682 -0.345137,-2.436027 -0.313031,-1.015346 -0.882909,-1.665489 -0.569878,-0.650142 -1.74174,-1.207981 -1.171862,-0.557838 -1.171862,-1.464827 0,-0.9712001 1.372523,-1.5852235 1.372523,-0.6140234 2.046745,-1.8380571 0.674222,-1.2240336 0.72238,-3.4152545 H 6.0525916 q 0.032106,2.1671415 0.6862615,3.3831487 0.6541556,1.2160072 1.7698322,1.7337132 1.1156765,0.517706 1.3966023,0.8748832 0.2809254,0.357177 0.2809254,0.84679 0,0.955148 -1.3966019,1.577198 -1.3966024,0.62205 -2.0427316,1.866149 -0.6461292,1.2441 -0.6942879,3.330977 z m 8.9976504,-2.343723 q 0.128423,0.369216 0.208688,0.830737 0.08026,0.461521 0.120396,1.039426 h -8.74883 q 0.032106,-0.577905 0.1163835,-1.039426 0.084278,-0.461521 0.2127009,-0.830737 h 3.7804576 v -4.430601 q 0,-0.545798 -0.305005,-1.0313985 Q 10.130028,9.4292923 9.3755419,9.0440227 L 8.95014,8.8273086 Q 8.7334259,8.7149383 8.5046721,8.5744754 8.2759182,8.4340125 8.0431512,8.2413777 H 13.950618 Q 13.573375,8.5544092 12.413553,9.1764591 11.253731,9.798509 11.253731,10.946291 v 4.430601 z"
     id="path4749" />
</svg>
