<?xml version="1.0" encoding="UTF-8" standalone="no"?>
<svg xmlns="http://www.w3.org/2000/svg" viewBox="0 0 22 22">
  <defs id="defs3051">
    <style
       type="text/css"
       id="current-color-scheme">
      .ColorScheme-Text {
        color:#4d4d4d;
      }
      </style>
  </defs>
  <path
     style="color:#4d4d4d;fill:currentColor;fill-opacity:1;stroke:none" class="ColorScheme-Text"
     d="m 16.09347,20.042218 q -0.585255,0.535733 -1.24254,0.535733 -0.630274,0 -0.985928,-0.616768 -0.355655,-0.616768 -0.814854,-1.346085 l -0.891387,-1.368594 q -0.06303,-0.09904 -0.355655,-0.684297 -0.292627,-0.585254 -0.742822,-0.585254 -0.108047,0 -0.180078,0.05402 l -0.162071,0.108047 q -0.765332,0.423184 -1.5846878,1.535167 -0.8193558,1.111983 -0.8193558,1.33708 0,0.09904 0.036016,0.189082 l 0.1350587,0.378165 q 0.027012,0.09904 0.027012,0.198086 0,0.333144 -0.2701173,0.57625 -0.2701173,0.243105 -0.5942581,0.243105 -0.5852541,0 -1.1525005,-0.612265 -0.5672463,-0.612266 -0.5672463,-1.170509 0,-0.747324 0.7338187,-1.481143 0.7338186,-0.733819 1.1479985,-1.328077 L 8.0259662,15.67082 q 0.2341017,-0.369161 0.3781643,-0.715811 0.1440625,-0.346651 0.1440625,-0.625772 0,-0.378164 -0.049521,-0.742822 -0.049522,-0.364659 -0.049522,-0.742823 0,-0.333145 0.036016,-0.495215 0.036016,-0.16207 0.090039,-0.25211 L 8.65624,11.970213 q 0.036016,-0.06303 0.067529,-0.130557 0.031514,-0.06753 0.031514,-0.139561 0,-0.07203 -0.040518,-0.11705 -0.040518,-0.04502 -0.094541,-0.04502 -0.2791212,0 -0.5222268,0.540235 -0.2431055,0.540234 -0.2431055,0.927402 0,0.08104 0.036016,0.175577 0.036016,0.09454 0.036016,0.544736 0,0.423184 -0.2656153,0.62127 -0.2656154,0.198086 -0.6347757,0.198086 -0.6302737,0 -0.9454105,-0.342149 -0.3151369,-0.342148 -0.3151369,-0.999434 0,-0.639277 0.405176,-1.539668 Q 6.5763367,10.763689 7.2876456,9.9443329 7.9989545,9.1249771 8.6292282,8.6252601 9.2595019,8.1255431 9.2595019,7.738375 q 0,-0.2611134 -0.3736623,-0.5942581 Q 8.5121774,6.8109723 8.2060444,6.131177 7.8999115,5.4513818 7.8999115,4.7760886 q 0,-1.2605474 0.9229008,-2.2149619 0.9229008,-0.9544144 2.2644837,-0.9544144 1.368594,0 2.205958,0.895889 0.837363,0.8958891 0.837363,2.1744443 0,0.3151368 -0.05853,0.6257717 -0.05853,0.3106349 -0.157569,0.6257718 -0.126054,-0.027012 -0.247607,-0.058525 -0.121553,-0.031514 -0.247608,-0.031514 -0.306133,0 -0.468203,0.040518 -0.16207,0.040518 -0.16207,0.1665723 0,0.1440626 0.157568,0.2521095 0.157568,0.1080469 0.364658,0.1800782 l 0.25211,0.081035 Q 13.44632,6.837984 13.243732,7.0675837 13.041144,7.2971834 12.879074,7.3512069 L 12.66298,7.441246 q -0.09904,0.04502 -0.153067,0.1215527 -0.05402,0.076533 -0.05402,0.2656154 0,0.3331447 0.270117,0.6347756 0.270118,0.301631 0.634776,0.8868852 0.364658,0.5852541 0.96792,1.3775981 0.603262,0.792344 0.931905,0.99043 0.328643,0.198086 0.558242,0.504219 0.2296,0.306133 0.2296,0.639278 0,0.36916 -0.288125,0.603262 -0.288125,0.234101 -0.648282,0.234101 -0.279121,0 -0.513222,-0.112548 -0.234102,-0.112549 -0.43669,-0.324141 -0.202588,-0.211592 -0.373662,-0.477207 -0.171075,-0.265616 -0.351153,-0.504219 -0.180078,-0.238604 -0.283623,-0.454698 -0.103545,-0.216094 -0.256611,-0.216094 -0.07203,0 -0.09454,0.08103 -0.02251,0.08104 -0.02251,0.180079 0,0.153066 0.02701,0.333144 0.02701,0.180079 0.02701,0.234102 0,0.171074 0.234102,1.251543 0.234102,1.08047 0.454697,1.530665 0.220596,0.450196 0.612266,1.355089 0.39167,0.904893 0.729317,1.256045 0.337647,0.351153 0.96792,0.351153 0.243106,0 0.544737,0.265615 0.301631,0.265615 0.301631,0.589756 0,0.468203 -0.585254,1.003936 z M 13.014132,5.0011863 q 0.171075,-0.1710742 0.171075,-0.4051759 0,-0.2431056 -0.171075,-0.4141799 -0.171074,-0.1710743 -0.414179,-0.1710743 -0.234102,0 -0.405176,0.1710743 -0.171075,0.1710743 -0.171075,0.4141799 0,0.2341017 0.171075,0.4051759 0.171074,0.1710743 0.405176,0.1710743 0.243105,0 0.414179,-0.1710743 z"
     id="path4749" />
</svg>
