<?xml version="1.0" encoding="UTF-8" standalone="no"?>
<svg xmlns="http://www.w3.org/2000/svg" viewBox="0 0 22 22">
  <defs id="defs3051">
    <style
       type="text/css"
       id="current-color-scheme">
      .ColorScheme-Text {
        color:#4d4d4d;
      }
      </style>
  </defs>
  <path
     style="color:#4d4d4d;fill:currentColor;fill-opacity:1;stroke:none" class="ColorScheme-Text"
     d="m 21.126606,12.816239 q 0,0.344378 -0.231379,0.721041 -0.231379,0.376663 -0.608042,0.753326 0,0.05381 0.01076,0.112999 0.01076,0.05919 0.01076,0.123761 0,1.194559 -0.274426,1.770316 -0.274426,0.575756 -0.780231,0.575756 -0.30133,0 -0.548851,-0.242141 -0.247522,-0.24214 -0.376663,-0.823277 -0.807135,0.548852 -1.447462,0.963181 -0.640328,0.414329 -1.210703,0.629565 -0.02152,1.086942 -0.355139,1.646556 -0.333616,0.559613 -0.968562,0.559613 -0.559614,0 -0.898611,-0.446615 -0.338996,-0.446614 -0.414329,-1.329082 H 5.7372316 q -0.075333,0.89323 -0.4143293,1.334463 -0.3389967,0.441234 -0.8986103,0.441234 -0.5811372,0 -0.9201339,-0.4789 -0.3389967,-0.4789 -0.3928057,-1.4367 Q 2.2396466,17.433052 1.6746521,16.674345 1.1096576,15.915638 1.1096576,14.979361 V 4.9170782 q 0,-1.0546564 0.7479451,-1.721888 Q 2.6055478,2.5279586 3.7893458,2.5279586 H 18.94196 q 1.183798,0 1.684222,0.591899 0.500424,0.591899 0.500424,1.775697 z M 3.0683052,9.5876994 q 0,0.376663 0.2798068,0.6672316 0.2798068,0.290569 0.6779934,0.290569 h 7.9960176 q 0.398186,0 0.677993,-0.290569 0.279807,-0.2905686 0.279807,-0.6672316 v -4.30472 q 0,-0.4089484 -0.279807,-0.6833743 Q 12.420309,4.3251792 12.022123,4.3251792 H 4.0261054 q -0.3981866,0 -0.6779934,0.2744259 Q 3.0683052,4.874031 3.0683052,5.2829794 Z M 17.403023,5.0569816 q 0,-0.3013304 -0.156046,-0.5165664 -0.156046,-0.215236 -0.392806,-0.215236 h -1.162274 q -0.322854,0 -0.570376,0.2744259 Q 14.874,4.874031 14.874,5.2829794 v 4.30472 q 0,0.2798068 0.129141,0.4358526 0.129142,0.156046 0.344378,0.156046 0.172189,0 0.344378,-0.107618 L 16.854171,9.4262724 Q 17.090931,9.286369 17.246977,8.9796577 17.403023,8.6729464 17.403023,8.371616 Z m 1.431319,2.6258792 q 0,0.215236 0.06457,0.3389967 0.06457,0.1237607 0.161427,0.1237607 0.02152,0 0.05381,-0.010762 l 0.05381,-0.021524 0.527328,-0.3013304 q 0.107618,-0.064571 0.182951,-0.2529023 0.07533,-0.1883315 0.07533,-0.4035675 V 4.8525074 q 0,-0.215236 -0.07533,-0.3712821 -0.07533,-0.1560461 -0.182951,-0.1560461 h -0.527328 q -0.129142,0 -0.231379,0.1829506 -0.102237,0.1829506 -0.102237,0.430472 z m -5.671468,6.8875522 q -0.312093,-0.312092 -0.764088,-0.312092 -0.451996,0 -0.764088,0.312092 -0.312092,0.312092 -0.312092,0.764088 0,0.441233 0.306711,0.758706 0.306711,0.317474 0.769469,0.317474 0.462757,0 0.769469,-0.317474 0.306711,-0.317473 0.306711,-0.758706 0,-0.451996 -0.312092,-0.764088 z m -8.7977719,1.522794 q 0.3067113,-0.317473 0.3067113,-0.758706 0,-0.441234 -0.3174731,-0.758707 -0.3174731,-0.317473 -0.7587069,-0.317473 -0.4519956,0 -0.7640878,0.312092 -0.3120922,0.312092 -0.3120922,0.764088 0,0.451995 0.3120922,0.764087 0.3120922,0.312093 0.7640878,0.312093 0.4627574,0 0.7694687,-0.317474 z"
     id="path4749" />
</svg>
