<?xml version="1.0" encoding="UTF-8" standalone="no"?>
<svg xmlns="http://www.w3.org/2000/svg" viewBox="0 0 22 22">
  <defs id="defs3051">
    <style
       type="text/css"
       id="current-color-scheme">
      .ColorScheme-Text {
        color:#4d4d4d;
      }
      </style>
  </defs>
  <path
     style="color:#4d4d4d;fill:currentColor;fill-opacity:1;stroke:none" class="ColorScheme-Text"
     d="M 15.421821,4.149711 C 14.791977,4.1493251 13.983404,4.4066009 13.50051,4.8906508 L 5.6613053,12.681742 C 5.4318152,12.91046 5.4044789,12.921922 4.952441,12.922308 H 3.4545242 c -1.5034503,-3.86e-4 -2.4044909,1.35083 -2.4056481,2.498665 0.00115,1.143981 0.9019199,2.592455 2.5403643,2.591685 0,0 2.0343344,0.0011 2.6622505,0 0.6290732,0.0011 1.3908996,-0.237424 2.0207445,-0.827542 L 16.066534,9.406854 c 0.166238,-0.1465713 0.260251,-0.1924526 0.545282,-0.1924526 h 1.927725 c 0.924904,0 2.234878,-1.0477952 2.235649,-2.5628173 C 20.77409,5.1543052 19.454577,4.1527968 18.462561,4.149711 Z m 0.182828,1.2926342 h 2.732819 c 0.664169,0.00155 1.113782,0.7440044 1.113012,1.1867861 0.0011,0.4447097 -0.318821,1.2730043 -1.132258,1.2733903 h -1.642256 c -0.697342,-3.86e-4 -1.006209,0.097205 -1.408107,0.4971665 L 7.4158246,16.25814 C 7.096467,16.576339 6.6936595,16.70155 6.1745102,16.700778 H 3.5860329 c -0.6664858,7.77e-4 -1.253373,-0.561595 -1.2541446,-1.29905 7.71e-4,-0.741311 0.5608982,-1.156374 1.1386735,-1.157918 h 1.7769721 c 0.5176063,0.0015 0.8596525,-0.145258 1.1547109,-0.44264 L 14.388997,5.8144197 C 14.719154,5.4865778 15.044619,5.443889 15.604649,5.4423452 Z" />
</svg>
