<?xml version="1.0" encoding="UTF-8" standalone="no"?>
<svg xmlns="http://www.w3.org/2000/svg" viewBox="0 0 22 22">
  <defs id="defs3051">
    <style type="text/css" id="current-color-scheme">
      .ColorScheme-Text {
        color:#4d4d4d;
      }
      </style>
  </defs>
  <path
     style="color:#4d4d4d;fill:currentColor;fill-opacity:1;stroke:none"
     class="ColorScheme-Text"
     d="m 20.855363,7.5190079 q 0.02085,0 0.291896,0.1980723 0.271047,0.1980724 0.271047,0.6567662 v 0.6463413 l -0.583792,0.4274193 -0.948663,0.70889 -2.637489,2.001574 q -0.75059,0.573367 -1.54288,1.188434 l -1.574153,1.240558 q -1.845201,1.469905 -3.648701,2.184008 -1.8035011,0.714103 -3.7112505,0.714103 -1.3865064,0 -2.8459868,-0.359658 Q 2.4659103,16.765859 1.6110718,16.08303 0.75623326,15.400202 0.63113494,14.441115 l 0.0208497,-0.07297 Q 0.76665812,13.419479 1.1940774,12.595915 1.6214966,11.772351 2.898542,10.563067 4.1755873,9.3537833 4.5091829,8.3738464 4.8427784,7.3939096 5.3275344,6.4035479 5.8122904,5.4131862 6.547243,4.5531352 7.2821956,3.6930843 8.4028681,3.2500277 9.5235405,2.8069712 10.847498,2.8069712 q 1.230133,0 2.444629,0.3805074 1.214497,0.3805074 2.298682,1.005999 1.084185,0.6254916 2.126671,1.2718329 z M 12.984594,7.2479615 V 7.0603141 q 0,-0.521243 -0.182435,-0.823564 -0.182435,-0.3023209 -0.474331,-0.3023209 -0.135523,0 -0.323171,0.088611 -0.187647,0.088611 -0.510818,0.3179582 l -0.291896,0.2084972 q -0.260622,0.1772226 -0.57858,0.265834 -0.317958,0.088611 -1.3500191,0.088611 -0.4899684,0 -0.9590871,-0.031275 -0.375295,0 -0.7349527,-0.093824 Q 7.2196465,6.6850191 7.1466724,6.3097241 L 7.1153979,6.1220767 Q 7.0945481,6.0386778 7.0632736,5.9865535 7.031999,5.9344292 6.959025,5.9344292 q -0.2397718,0 -0.6671911,0.3857198 -0.4274192,0.3857198 -0.8652634,1.3187448 -0.4378441,0.933025 -0.4378441,1.67319 0,0.9799372 1.005999,1.3135322 1.005999,0.333596 2.7052512,0.333596 1.0841854,0 1.7357394,-0.229347 0.651554,-0.229347 1.204071,-0.7401653 0.552518,-0.5108181 0.948662,-1.3969312 0.396145,-0.8861131 0.396145,-1.344807 z M 10.446141,17.427837 q 1.767013,-0.672403 3.216069,-1.819138 1.449055,-1.146734 2.845987,-2.293469 l 4.910109,-4.0448456 v 0.2918961 l -6.150668,6.0359935 -0.427419,0.458694 q -0.239772,0.271047 -0.693253,0.693253 -0.453481,0.422207 -0.969512,0.781865 -0.516031,0.359658 -0.906963,0.568155 -0.390932,0.208497 -0.72974,0.338808 -0.338808,0.13031 -0.740165,0.250196 -0.401357,0.119886 -0.9955743,0.224135 -0.594217,0.104248 -1.224921,0.15116 -0.630704,0.04691 -1.381294,0.04691 -2.9398105,0 -4.6807621,-0.90175 -1.74095162,-0.901751 -1.91817424,-2.621852 0.57336734,1.240558 2.44984214,1.876474 1.8764748,0.635917 3.7633744,0.635917 1.86605,0 3.6330641,-0.672404 z m 6.635423,-9.7524562 q 0,-0.3231707 -0.140736,-0.6046419 Q 16.800093,6.7892677 16.570746,6.7058688 L 16.216301,6.5703456 q -0.05213,-0.02085 -0.09904,-0.031274 -0.04691,-0.010425 -0.09904,-0.010425 -0.239771,0 -0.401357,0.2241345 -0.161585,0.2241345 -0.161585,0.5785797 v 2.2413449 q 0,0.3857198 0.177222,0.6202783 0.177223,0.23456 0.437845,0.23456 l 0.145948,-0.02085 0.354445,-0.114673 q 0.229347,-0.0834 0.370082,-0.3440203 0.140736,-0.2606215 0.140736,-0.6046419 z M 9.5860897,13.601914 q -0.1772226,-0.203285 -0.4795436,-0.203285 -0.5003933,0 -0.9069628,0.443056 -0.4065695,0.443057 -0.4065695,0.901751 0,0.333595 0.182435,0.500393 0.1824351,0.166798 0.4534814,0.166798 0.4899684,0 0.9121753,-0.432632 0.4222068,-0.432631 0.4222068,-0.860051 0,-0.312746 -0.1772226,-0.51603 z M 3.3780856,12.549003 q -0.1720102,-0.21371 -0.411782,-0.21371 -0.3440204,0 -0.630704,0.40657 -0.2866837,0.406569 -0.2866837,0.813139 0,0.323171 0.1563729,0.55773 0.1563729,0.234559 0.4169944,0.234559 0.3648701,0 0.6463413,-0.370082 0.2814712,-0.370083 0.2814712,-0.849626 0,-0.364871 -0.1720101,-0.57858 z M 18.759966,7.9777017 q 0,-0.2293469 -0.09382,-0.4274192 -0.09382,-0.1980724 -0.239772,-0.2501967 l -0.208497,-0.052124 q -0.02085,0 -0.03649,-0.010425 -0.01564,-0.010425 -0.03649,-0.010425 -0.145948,0 -0.239772,0.1667978 -0.09382,0.1667977 -0.09382,0.4065695 v 1.4699053 q 0,0.2606215 0.09904,0.4274192 0.09904,0.1667978 0.244985,0.1667978 0.02085,0 0.03127,-0.010425 0.01042,-0.010425 0.03127,-0.010425 l 0.208497,-0.041699 q 0.145948,-0.031275 0.239772,-0.2293469 0.09382,-0.1980723 0.09382,-0.4169944 z m 0.979937,0.1146735 q 0,-0.1772226 -0.05734,-0.3075334 -0.05734,-0.1303107 -0.140736,-0.1511604 l -0.166798,-0.041699 q -0.0834,0 -0.156373,0.1198859 -0.07297,0.1198859 -0.07297,0.3179582 V 9.114012 q 0,0.1876475 0.06255,0.3023209 0.06255,0.1146735 0.145948,0.1146735 0.03128,0 0.0417,-0.010425 l 0.145948,-0.062549 q 0.0834,-0.031275 0.140736,-0.1720102 0.05734,-0.1407356 0.05734,-0.3075334 z m 0.583792,0.062549 q 0,-0.1250984 -0.03127,-0.229347 -0.03128,-0.1042486 -0.0834,-0.1250983 l -0.09382,-0.010425 q -0.05212,0 -0.0834,0.093824 -0.03127,0.093824 -0.03127,0.2293469 V 8.915939 q 0,0.1459481 0.03127,0.229347 0.03128,0.083399 0.09382,0.083399 l 0.0834,-0.031274 q 0.05212,-0.02085 0.0834,-0.1303108 0.03127,-0.109461 0.03127,-0.2345593 z m 0.375295,0.031275 q 0,-0.093824 -0.02085,-0.182435 -0.02085,-0.088611 -0.05213,-0.088611 l -0.05212,-0.010425 q -0.03127,0 -0.06255,0.067762 -0.03128,0.067762 -0.03128,0.2032848 v 0.6254916 q 0,0.1355232 0.03128,0.1980723 0.03128,0.062549 0.06255,0.062549 l 0.05212,-0.031275 q 0.03128,0 0.05213,-0.088611 0.02085,-0.088611 0.02085,-0.1928599 z"
     id="path816" />
</svg>
