<?xml version="1.0" encoding="UTF-8" standalone="no"?>
<svg xmlns="http://www.w3.org/2000/svg" viewBox="0 0 22 22">
  <defs id="defs3051">
    <style
       type="text/css"
       id="current-color-scheme">
      .ColorScheme-Text {
        color:#4d4d4d;
      }
      </style>
  </defs>
  <path
     style="color:#4d4d4d;fill:currentColor;fill-opacity:1;stroke:none" class="ColorScheme-Text"
     d="m 5.0443854,17.825429 q -0.5100278,-0.505261 -0.5100278,-1.220253 0,-0.705459 0.5052612,-1.215487 0.5052612,-0.510028 1.2297867,-0.510028 0.7245255,0 1.22502,0.519561 0.5004946,0.519561 0.5004946,1.205954 0,0.695925 -0.5052612,1.21072 -0.5052612,0.514794 -1.2202534,0.514794 -0.7149923,0 -1.2250201,-0.505261 z m 9.6619286,0 q -0.505261,-0.505261 -0.505261,-1.220253 0,-0.705459 0.505261,-1.215487 0.505261,-0.510028 1.220253,-0.510028 0.714993,0 1.220254,0.505261 0.505261,0.505261 0.505261,1.220254 0,0.714992 -0.510028,1.220253 -0.510027,0.505261 -1.215487,0.505261 -0.714992,0 -1.220253,-0.505261 z m 6.282399,-5.071678 q 0,0.705459 -0.257398,1.677848 -0.257397,0.97239 -0.891357,1.572983 -0.633959,0.600594 -1.625415,0.600594 0,-0.934257 -0.67686,-1.611116 -0.676859,-0.67686 -1.611116,-0.67686 -0.943789,0 -1.615882,0.67686 -0.672093,0.676859 -0.672093,1.611116 H 8.5478475 q 0,-0.924724 -0.6673261,-1.60635 Q 7.2131953,14.3172 6.2694055,14.3172 q -0.9437898,0 -1.6206491,0.67686 -0.6768593,0.676859 -0.6768593,1.611116 H 3.7144999 q -1.2583864,0 -2.0639443,-0.69116 -0.80555798,-0.691159 -0.80555798,-1.940012 0,-0.667326 0.24309738,-1.415685 0.2430973,-0.748358 0.9199567,-1.244086 L 2.4561135,10.999636 Q 2.9899744,10.62784 3.2330717,10.341844 3.4761691,10.055847 3.7335663,9.6363845 L 4.6296899,8.1968668 Q 5.6592788,6.5380847 6.3933375,5.6753274 7.1273962,4.8125701 7.6421906,4.5885392 8.156985,4.3645083 9.7776341,4.1929101 11.398283,4.021312 13.609993,4.021312 q 2.068711,0 3.613094,0.2430974 1.544383,0.2430973 2.049644,0.643493 0.505261,0.4003957 0.867524,1.2488531 0.362263,0.8484575 0.60536,3.1030664 0.243098,2.2546091 0.243098,3.4939291 z M 8.7194456,9.4361867 q 0,-0.2001979 0.00953,-0.433762 0.00953,-0.2335641 0.00953,-0.4623617 0,-0.7531251 -0.066733,-1.015289 Q 8.6050468,7.2626102 8.4715816,7.1625113 8.3381164,7.0624124 7.8423884,7.0624124 q -1.2011869,0 -1.4967171,0.3527295 Q 6.0501412,7.7678714 5.482914,8.9309255 4.9156868,10.09398 4.9156868,10.322777 q 0,0.162065 0.1048656,0.26693 0.1048655,0.104866 0.2955301,0.104866 h 2.859969 q 0.3050634,0 0.4146955,-0.214498 0.1096321,-0.214497 0.1096321,-0.490961 z M 12.718636,7.1529781 Q 12.313473,7.005213 10.683291,7.005213 q -0.9342566,0 -0.9866893,0.9485564 -0.052433,0.9485564 -0.052433,1.5491499 0,0.8579907 0.1382318,1.0152887 0.1382319,0.157299 1.2250205,0.157299 0.305063,0 0.571994,-0.0095 h 0.409928 l 0.276464,0.0095 q 0.695926,0 0.776958,-0.471895 0.08103,-0.4718952 0.08103,-1.3680188 0,-1.5348501 -0.405162,-1.6826151 z m 6.763826,0.9294899 q -0.181131,-0.8961236 -0.91519,-0.9771561 -0.734059,-0.081032 -2.116377,-0.081032 -0.381329,0 -1.034355,0.00953 -0.653027,0.00953 -0.643493,0.00953 -0.638727,0 -0.719759,0.3002968 -0.08103,0.3002967 -0.08103,1.4919505 0,1.6778488 0.300297,1.8017808 0.300297,0.123932 1.19642,0.123932 0.371796,0 0.800792,-0.0095 l 1.468117,-0.03813 q 0.285997,0 0.400396,-0.0095 0.953323,0 1.23932,-0.176365 0.285997,-0.176364 0.285997,-0.5672267 0,-0.9819227 -0.181132,-1.8780463 z"
     id="path4751" />
</svg>
