<?xml version="1.0" encoding="UTF-8" standalone="no"?>
<svg width="22" height="22" viewBox="0 0 22 22" version="1.1" xmlns="http://www.w3.org/2000/svg" xmlns:svg="http://www.w3.org/2000/svg">
  <style type="text/css" id="current-color-scheme">
    .ColorScheme-Text { color:#4d4d4d; }
  </style>
  <g transform="matrix(1.3102432,0,0,1.3102432,1.2193104,1.1894719)">
    <path d="m 5.1443418,7.3044641 c 0,-0.528773 -0.0081,-0.8023148 0.1015991,-1.2374509 C 5.3614143,5.6373851 5.5519455,5.2463134 5.8175344,4.8993061 6.071576,4.5688229 6.3991096,4.3125374 6.7051142,4.1307717 7.1671034,3.949414 7.1363263,3.9549633 7.6766568,3.8968406 L 13.845266,3.8729476 V 2.8539579 H 15 V 12.272727 H 13.845266 V 9.6013219 H 1.2124711 V 12.272727 H 0 V 2.7272727 h 1.1374134 v 0.837224 c 0.2078522,0 0.4272517,0.016524 0.6581986,0.060589 0.2309469,0.044065 0.4618938,0.1101611 0.6928407,0.1982899 0.2309468,0.088129 0.4503464,0.203798 0.6466512,0.3414993 0.1963049,0.1321932 0.3579677,0.2919267 0.4849885,0.4681844 0.2598152,0.3580234 0.4445727,0.7601112 0.5600462,1.2117715 0.1212471,0.4461522 0.1789838,0.9308608 0.1789838,1.4596338 z m -4.0069284,0 h 2.2748268 c 0,-0.4516602 -0.040416,-0.842732 -0.1212471,-1.1732151 C 3.204388,5.8007659 3.0715935,5.497823 2.8983834,5.2114043 2.7020785,4.9139695 2.4364896,4.7046635 2.1016166,4.5889944 1.76097,4.4678172 1.443418,4.4072287 1.1374134,4.4072287 Z M 7.9306984,4.7560967 C 7.2845735,4.7638814 6.8853796,4.9041689 6.5505066,5.3833694 6.3657491,5.653264 6.2216915,6.0174407 6.1408601,6.3424158 6.0658023,6.6673908 6.091224,6.8528039 6.091224,7.3044641 h 7.754042 V 4.7322037 Z" style="fill:currentColor;stroke-width:0"/>
  </g>
</svg>
